<svg xmlns="http://www.w3.org/2000/svg"><path d="M14.805 10.334c.256-.377.535-.425.762-.425.227 0 .605.048.86.425 2.015 2.766 5.34 8.277 7.791 12.342 1.6 2.65 2.828 4.687 3.08 4.946.946.972 2.243.366 2.997-.737.742-1.086.948-1.849.948-2.663 0-.554-10.752-20.552-11.835-22.217C18.366.405 18.028 0 16.245 0H14.91c-1.777 0-2.034.404-3.075 2.005C10.753 3.67 0 23.668 0 24.222c0 .814.206 1.577.948 2.663.754 1.103 2.052 1.71 2.998.737.252-.26 1.48-2.295 3.08-4.946 2.451-4.065 5.765-9.576 7.78-12.342Z"/></svg>